<mxfile host="app.diagrams.net" agent="Mozilla/5.0 (Windows NT 10.0; Win64; x64) AppleWebKit/537.36 (KHTML, like Gecko) Chrome/130.0.0.0 Safari/537.36 Edg/130.0.0.0" version="24.8.3">
  <diagram name="Страница — 1" id="uZJ0J9HnlZWyM_aeqODJ">
    <mxGraphModel dx="1631" dy="2100" grid="1" gridSize="10" guides="1" tooltips="1" connect="1" arrows="1" fold="1" page="1" pageScale="1" pageWidth="827" pageHeight="1169" math="0" shadow="0">
      <root>
        <mxCell id="0" />
        <mxCell id="1" parent="0" />
        <mxCell id="CJbbh5gAYESgI7lCPCJJ-2" value="начало" style="strokeWidth=1;html=1;shape=mxgraph.flowchart.terminator;whiteSpace=wrap;" parent="1" vertex="1">
          <mxGeometry x="307.25" y="-20" width="120" height="40" as="geometry" />
        </mxCell>
        <mxCell id="CJbbh5gAYESgI7lCPCJJ-3" value="конец" style="strokeWidth=1;html=1;shape=mxgraph.flowchart.terminator;whiteSpace=wrap;" parent="1" vertex="1">
          <mxGeometry x="308.5" y="720" width="120" height="40" as="geometry" />
        </mxCell>
        <mxCell id="CJbbh5gAYESgI7lCPCJJ-7" value=" Определение события Do, &lt;br/&gt;соотв-го сообщению Mes" style="rounded=0;whiteSpace=wrap;html=1;" parent="1" vertex="1">
          <mxGeometry x="289.75" y="50" width="155" height="50" as="geometry" />
        </mxCell>
        <mxCell id="CJbbh5gAYESgI7lCPCJJ-8" value="&lt;font style=&quot;font-size: 11px;&quot;&gt;Do = Левая кнопка мыши нажата&lt;/font&gt;" style="rhombus;whiteSpace=wrap;html=1;" parent="1" vertex="1">
          <mxGeometry x="319.25" y="130" width="96" height="100" as="geometry" />
        </mxCell>
        <mxCell id="CJbbh5gAYESgI7lCPCJJ-10" value="&lt;font style=&quot;font-size: 11px;&quot;&gt;Do = Левая кнопка мыши отпущена&lt;/font&gt;" style="rhombus;whiteSpace=wrap;html=1;" parent="1" vertex="1">
          <mxGeometry x="319.25" y="450" width="96" height="100" as="geometry" />
        </mxCell>
        <mxCell id="CJbbh5gAYESgI7lCPCJJ-11" value="&lt;font style=&quot;font-size: 11px;&quot;&gt;Do = мышь перемещается&lt;/font&gt;" style="rhombus;whiteSpace=wrap;html=1;" parent="1" vertex="1">
          <mxGeometry x="319.25" y="280" width="96" height="100" as="geometry" />
        </mxCell>
        <mxCell id="-86JBF8WuvDYxr8lsoiF-8" style="edgeStyle=orthogonalEdgeStyle;rounded=0;orthogonalLoop=1;jettySize=auto;html=1;exitX=1;exitY=0.5;exitDx=0;exitDy=0;" edge="1" parent="1" source="CJbbh5gAYESgI7lCPCJJ-13">
          <mxGeometry relative="1" as="geometry">
            <mxPoint x="710" y="180" as="targetPoint" />
          </mxGeometry>
        </mxCell>
        <mxCell id="CJbbh5gAYESgI7lCPCJJ-13" value="shape_drawing = true" style="shape=parallelogram;perimeter=parallelogramPerimeter;whiteSpace=wrap;html=1;fixedSize=1;" parent="1" vertex="1">
          <mxGeometry x="510" y="160" width="150" height="40" as="geometry" />
        </mxCell>
        <mxCell id="-86JBF8WuvDYxr8lsoiF-19" style="edgeStyle=orthogonalEdgeStyle;rounded=0;orthogonalLoop=1;jettySize=auto;html=1;exitX=1;exitY=0.5;exitDx=0;exitDy=0;" edge="1" parent="1" source="CJbbh5gAYESgI7lCPCJJ-14">
          <mxGeometry relative="1" as="geometry">
            <mxPoint x="710" y="500" as="targetPoint" />
          </mxGeometry>
        </mxCell>
        <mxCell id="CJbbh5gAYESgI7lCPCJJ-14" value="shape_drawing = false" style="shape=parallelogram;perimeter=parallelogramPerimeter;whiteSpace=wrap;html=1;fixedSize=1;" parent="1" vertex="1">
          <mxGeometry x="510" y="480" width="150" height="40" as="geometry" />
        </mxCell>
        <mxCell id="-86JBF8WuvDYxr8lsoiF-11" style="edgeStyle=orthogonalEdgeStyle;rounded=0;orthogonalLoop=1;jettySize=auto;html=1;exitX=1;exitY=0.5;exitDx=0;exitDy=0;" edge="1" parent="1" source="CJbbh5gAYESgI7lCPCJJ-17">
          <mxGeometry relative="1" as="geometry">
            <mxPoint x="710" y="330" as="targetPoint" />
          </mxGeometry>
        </mxCell>
        <mxCell id="CJbbh5gAYESgI7lCPCJJ-17" value="&lt;font style=&quot;font-size: 11px;&quot;&gt;shape_drawing = true ?&lt;/font&gt;" style="rhombus;whiteSpace=wrap;html=1;" parent="1" vertex="1">
          <mxGeometry x="490" y="285" width="105" height="90" as="geometry" />
        </mxCell>
        <mxCell id="-86JBF8WuvDYxr8lsoiF-4" value="Передача сообщения Mes станд. &lt;br/&gt;обработчику Win" style="shape=process;whiteSpace=wrap;html=1;backgroundOutline=1;" vertex="1" parent="1">
          <mxGeometry x="289.75" y="630" width="157.5" height="50" as="geometry" />
        </mxCell>
        <mxCell id="-86JBF8WuvDYxr8lsoiF-6" value="" style="endArrow=none;html=1;rounded=0;exitX=0.5;exitY=1;exitDx=0;exitDy=0;entryX=0.5;entryY=0;entryDx=0;entryDy=0;entryPerimeter=0;" edge="1" parent="1" source="-86JBF8WuvDYxr8lsoiF-4" target="CJbbh5gAYESgI7lCPCJJ-3">
          <mxGeometry width="50" height="50" relative="1" as="geometry">
            <mxPoint x="60" y="710" as="sourcePoint" />
            <mxPoint x="110" y="660" as="targetPoint" />
          </mxGeometry>
        </mxCell>
        <mxCell id="-86JBF8WuvDYxr8lsoiF-7" value="" style="endArrow=none;html=1;rounded=0;" edge="1" parent="1">
          <mxGeometry width="50" height="50" relative="1" as="geometry">
            <mxPoint x="710" y="590" as="sourcePoint" />
            <mxPoint x="710" y="180" as="targetPoint" />
          </mxGeometry>
        </mxCell>
        <mxCell id="-86JBF8WuvDYxr8lsoiF-10" value="" style="endArrow=classic;html=1;rounded=0;endSize=6;targetPerimeterSpacing=0;sourcePerimeterSpacing=0;jumpSize=6;" edge="1" parent="1">
          <mxGeometry width="50" height="50" relative="1" as="geometry">
            <mxPoint x="710" y="590" as="sourcePoint" />
            <mxPoint x="367" y="590" as="targetPoint" />
          </mxGeometry>
        </mxCell>
        <mxCell id="-86JBF8WuvDYxr8lsoiF-12" value="рисование фигуры" style="shape=process;whiteSpace=wrap;html=1;backgroundOutline=1;" vertex="1" parent="1">
          <mxGeometry x="482.5" y="410" width="120" height="45" as="geometry" />
        </mxCell>
        <mxCell id="-86JBF8WuvDYxr8lsoiF-24" value="" style="endArrow=classic;html=1;rounded=0;exitX=1;exitY=0.5;exitDx=0;exitDy=0;" edge="1" parent="1" source="-86JBF8WuvDYxr8lsoiF-12">
          <mxGeometry width="50" height="50" relative="1" as="geometry">
            <mxPoint x="640" y="480" as="sourcePoint" />
            <mxPoint x="710" y="433" as="targetPoint" />
          </mxGeometry>
        </mxCell>
        <mxCell id="-86JBF8WuvDYxr8lsoiF-25" value="" style="endArrow=none;html=1;rounded=0;exitX=0.5;exitY=1;exitDx=0;exitDy=0;exitPerimeter=0;entryX=0.5;entryY=0;entryDx=0;entryDy=0;" edge="1" parent="1" source="CJbbh5gAYESgI7lCPCJJ-2" target="CJbbh5gAYESgI7lCPCJJ-7">
          <mxGeometry width="50" height="50" relative="1" as="geometry">
            <mxPoint x="130" y="-40" as="sourcePoint" />
            <mxPoint x="180" y="-90" as="targetPoint" />
          </mxGeometry>
        </mxCell>
        <mxCell id="-86JBF8WuvDYxr8lsoiF-26" value="" style="endArrow=none;html=1;rounded=0;exitX=0.5;exitY=1;exitDx=0;exitDy=0;" edge="1" parent="1" source="CJbbh5gAYESgI7lCPCJJ-7">
          <mxGeometry width="50" height="50" relative="1" as="geometry">
            <mxPoint x="40" y="140" as="sourcePoint" />
            <mxPoint x="367" y="130" as="targetPoint" />
          </mxGeometry>
        </mxCell>
        <mxCell id="-86JBF8WuvDYxr8lsoiF-28" value="" style="endArrow=none;html=1;rounded=0;exitX=0.5;exitY=1;exitDx=0;exitDy=0;entryX=0.5;entryY=0;entryDx=0;entryDy=0;" edge="1" parent="1" source="CJbbh5gAYESgI7lCPCJJ-8" target="CJbbh5gAYESgI7lCPCJJ-11">
          <mxGeometry width="50" height="50" relative="1" as="geometry">
            <mxPoint x="100" y="350" as="sourcePoint" />
            <mxPoint x="150" y="300" as="targetPoint" />
          </mxGeometry>
        </mxCell>
        <mxCell id="-86JBF8WuvDYxr8lsoiF-29" value="" style="endArrow=none;html=1;rounded=0;exitX=0.5;exitY=1;exitDx=0;exitDy=0;entryX=0.5;entryY=0;entryDx=0;entryDy=0;" edge="1" parent="1" source="CJbbh5gAYESgI7lCPCJJ-11" target="CJbbh5gAYESgI7lCPCJJ-10">
          <mxGeometry width="50" height="50" relative="1" as="geometry">
            <mxPoint x="170" y="520" as="sourcePoint" />
            <mxPoint x="220" y="470" as="targetPoint" />
          </mxGeometry>
        </mxCell>
        <mxCell id="-86JBF8WuvDYxr8lsoiF-30" value="" style="endArrow=none;html=1;rounded=0;exitX=0.5;exitY=1;exitDx=0;exitDy=0;entryX=0.5;entryY=0;entryDx=0;entryDy=0;" edge="1" parent="1" source="CJbbh5gAYESgI7lCPCJJ-10" target="-86JBF8WuvDYxr8lsoiF-4">
          <mxGeometry width="50" height="50" relative="1" as="geometry">
            <mxPoint x="110" y="630" as="sourcePoint" />
            <mxPoint x="160" y="580" as="targetPoint" />
          </mxGeometry>
        </mxCell>
        <mxCell id="-86JBF8WuvDYxr8lsoiF-31" value="" style="endArrow=none;html=1;rounded=0;exitX=1;exitY=0.5;exitDx=0;exitDy=0;entryX=0;entryY=0.5;entryDx=0;entryDy=0;" edge="1" parent="1" source="CJbbh5gAYESgI7lCPCJJ-8" target="CJbbh5gAYESgI7lCPCJJ-13">
          <mxGeometry width="50" height="50" relative="1" as="geometry">
            <mxPoint x="140" y="300" as="sourcePoint" />
            <mxPoint x="190" y="250" as="targetPoint" />
          </mxGeometry>
        </mxCell>
        <mxCell id="-86JBF8WuvDYxr8lsoiF-32" value="" style="endArrow=none;html=1;rounded=0;exitX=1;exitY=0.5;exitDx=0;exitDy=0;entryX=0;entryY=0.5;entryDx=0;entryDy=0;" edge="1" parent="1" source="CJbbh5gAYESgI7lCPCJJ-11" target="CJbbh5gAYESgI7lCPCJJ-17">
          <mxGeometry width="50" height="50" relative="1" as="geometry">
            <mxPoint x="140" y="400" as="sourcePoint" />
            <mxPoint x="190" y="350" as="targetPoint" />
          </mxGeometry>
        </mxCell>
        <mxCell id="-86JBF8WuvDYxr8lsoiF-33" value="" style="endArrow=none;html=1;rounded=0;exitX=0.5;exitY=1;exitDx=0;exitDy=0;entryX=0.5;entryY=0;entryDx=0;entryDy=0;" edge="1" parent="1" source="CJbbh5gAYESgI7lCPCJJ-17" target="-86JBF8WuvDYxr8lsoiF-12">
          <mxGeometry width="50" height="50" relative="1" as="geometry">
            <mxPoint x="140" y="490" as="sourcePoint" />
            <mxPoint x="190" y="440" as="targetPoint" />
          </mxGeometry>
        </mxCell>
        <mxCell id="-86JBF8WuvDYxr8lsoiF-34" value="" style="endArrow=none;html=1;rounded=0;exitX=1;exitY=0.5;exitDx=0;exitDy=0;entryX=0;entryY=0.5;entryDx=0;entryDy=0;" edge="1" parent="1" source="CJbbh5gAYESgI7lCPCJJ-10" target="CJbbh5gAYESgI7lCPCJJ-14">
          <mxGeometry width="50" height="50" relative="1" as="geometry">
            <mxPoint x="450" y="550" as="sourcePoint" />
            <mxPoint x="500" y="500" as="targetPoint" />
          </mxGeometry>
        </mxCell>
        <mxCell id="-86JBF8WuvDYxr8lsoiF-35" value="нет" style="text;html=1;align=center;verticalAlign=middle;resizable=0;points=[];autosize=1;strokeColor=none;fillColor=none;" vertex="1" parent="1">
          <mxGeometry x="360" y="220" width="40" height="30" as="geometry" />
        </mxCell>
        <mxCell id="-86JBF8WuvDYxr8lsoiF-36" value="нет" style="text;html=1;align=center;verticalAlign=middle;resizable=0;points=[];autosize=1;strokeColor=none;fillColor=none;" vertex="1" parent="1">
          <mxGeometry x="360" y="368" width="40" height="30" as="geometry" />
        </mxCell>
        <mxCell id="-86JBF8WuvDYxr8lsoiF-37" value="нет" style="text;html=1;align=center;verticalAlign=middle;resizable=0;points=[];autosize=1;strokeColor=none;fillColor=none;" vertex="1" parent="1">
          <mxGeometry x="360" y="540" width="40" height="30" as="geometry" />
        </mxCell>
        <mxCell id="-86JBF8WuvDYxr8lsoiF-38" value="да" style="text;html=1;align=center;verticalAlign=middle;resizable=0;points=[];autosize=1;strokeColor=none;fillColor=none;" vertex="1" parent="1">
          <mxGeometry x="404.75" y="150" width="40" height="30" as="geometry" />
        </mxCell>
        <mxCell id="-86JBF8WuvDYxr8lsoiF-39" value="да" style="text;html=1;align=center;verticalAlign=middle;resizable=0;points=[];autosize=1;strokeColor=none;fillColor=none;" vertex="1" parent="1">
          <mxGeometry x="404.75" y="300" width="40" height="30" as="geometry" />
        </mxCell>
        <mxCell id="-86JBF8WuvDYxr8lsoiF-40" value="да" style="text;html=1;align=center;verticalAlign=middle;resizable=0;points=[];autosize=1;strokeColor=none;fillColor=none;" vertex="1" parent="1">
          <mxGeometry x="404.75" y="470" width="40" height="30" as="geometry" />
        </mxCell>
        <mxCell id="-86JBF8WuvDYxr8lsoiF-41" value="да" style="text;html=1;align=center;verticalAlign=middle;resizable=0;points=[];autosize=1;strokeColor=none;fillColor=none;" vertex="1" parent="1">
          <mxGeometry x="540" y="368" width="40" height="30" as="geometry" />
        </mxCell>
        <mxCell id="-86JBF8WuvDYxr8lsoiF-42" value="нет" style="text;html=1;align=center;verticalAlign=middle;resizable=0;points=[];autosize=1;strokeColor=none;fillColor=none;" vertex="1" parent="1">
          <mxGeometry x="590" y="300" width="40" height="30" as="geometry" />
        </mxCell>
      </root>
    </mxGraphModel>
  </diagram>
</mxfile>
